<svg id="Layer_1" enable-background="new 0 0 256 256" height="512" viewBox="0 0 256 256" width="512" xmlns="http://www.w3.org/2000/svg"><g><g><g><path d="m155.595 142.323-18.204-26.603c-1.605-2.345-4.264-3.748-7.106-3.748-2.02 0-76.156 0-75.026 0-2.842 0-5.501 1.402-7.106 3.748l-18.203 26.603c-1.364 1.994-2.094 4.354-2.094 6.77v32.911h17.153 5.71v17.937c0 1.105.895 2 2 2h79.956c1.189 0 2.152-.964 2.152-2.152v-17.784h5.777 17.085v-32.911c0-2.417-.73-4.777-2.094-6.771z" fill="#e0ebfc"/></g><g><path d="m132.674 203.941h-79.956c-2.206 0-4-1.794-4-4v-15.937h-20.863c-1.104 0-2-.896-2-2v-32.911c0-2.831.845-5.563 2.444-7.899l18.204-26.604c1.975-2.886 5.238-4.611 8.734-4.618h.009 75.039c3.504 0 6.777 1.727 8.756 4.618l18.204 26.604c1.599 2.336 2.444 5.067 2.444 7.899v32.911c0 1.104-.896 2-2 2h-20.862v15.784c0 2.29-1.863 4.153-4.153 4.153zm-102.819-23.937h20.863c1.104 0 2 .896 2 2v17.937h79.956c.084 0 .153-.068.153-.153v-17.784c0-1.104.896-2 2-2h20.862v-30.911c0-2.021-.604-3.972-1.745-5.64l-18.204-26.604c-1.233-1.801-3.272-2.877-5.456-2.877h-75.025c-2.183 0-4.222 1.076-5.455 2.877l-18.204 26.604c-1.142 1.668-1.745 3.619-1.745 5.64z" fill="#3762cc"/></g><g><path d="m50.718 184.004c-1.104 0-2-.896-2-2v-55.594c0-1.104.896-2 2-2s2 .896 2 2v55.594c0 1.104-.895 2-2 2z" fill="#3762cc"/></g><g><path d="m134.826 184.004c-1.104 0-2-.896-2-2v-55.594c0-1.104.896-2 2-2s2 .896 2 2v55.594c0 1.104-.895 2-2 2z" fill="#3762cc"/></g><g><path d="m139.126 243.002c1.399 0 2.426-1.313 2.089-2.671l-5.981-24.122c-.238-.96-1.1-1.634-2.089-1.634l-80.744.001c-.989 0-1.851.674-2.089 1.634l-5.981 24.122c-.337 1.358.691 2.671 2.089 2.671 61.447-.001 93.725-.001 92.706-.001z" fill="#e0ebfc"/></g><g><path d="m46.422 245.004c-1.286 0-2.479-.581-3.271-1.594s-1.069-2.31-.759-3.558l5.98-24.122c.461-1.856 2.119-3.153 4.031-3.153l80.744-.001c1.912 0 3.57 1.296 4.03 3.152l5.981 24.123c.309 1.249.032 2.545-.76 3.558-.788 1.007-1.97 1.587-3.248 1.594-.001 0-.009 0-.022 0-.995-.001-33.147-.001-92.706.001zm86.747-4.002c2.728 0 4.413 0 5.486.056.151-.036.309-.056.471-.056.021 0 .074 0 .12-.059s.033-.111.028-.131l-5.98-24.122c-.017-.068-.078-.116-.148-.116l-80.744.001c-.07 0-.131.048-.148.116l-5.98 24.121c-.005.02-.018.072.027.131.046.059.1.059.121.059z" fill="#3762cc"/></g><g><path d="m56.167 203.941c-.352 0-.708-.093-1.032-.288-.945-.571-1.25-1.8-.679-2.746l54.304-89.969c.572-.945 1.801-1.249 2.746-.679.945.571 1.25 1.8.679 2.746l-54.304 89.969c-.376.623-1.036.967-1.714.967z" fill="#3762cc"/></g><g><path d="m75.105 98.502v13.47l15.201 33.412 20.167-33.412v-6.865-6.605z" fill="#f9cfcf"/></g><g><path d="m90.307 147.384c-.039 0-.078-.001-.117-.003-.741-.043-1.397-.493-1.704-1.168l-15.201-33.413c-.119-.26-.18-.542-.18-.828v-13.47c0-1.104.896-2 2-2h35.368c1.104 0 2 .896 2 2v13.47c0 .364-.1.722-.288 1.034l-20.167 33.412c-.363.602-1.014.966-1.711.966zm-13.202-35.845 13.45 29.563 17.918-29.686v-10.914h-31.368z" fill="#3762cc"/></g><g><path d="m92.806 97.173c-24.704 0-44.731-20.026-44.731-44.73v-14.323c0-4.072 3.301-7.374 7.374-7.374h82.087v21.696c.001 24.705-20.026 44.731-44.73 44.731z" fill="#4671c6"/></g><g><path d="m92.806 99.173c-25.767 0-46.73-20.963-46.73-46.73v-14.323c0-5.169 4.205-9.374 9.374-9.374h82.087c1.104 0 2 .896 2 2v21.697c0 25.767-20.964 46.73-46.731 46.73zm-37.356-66.427c-2.963 0-5.374 2.411-5.374 5.374v14.323c0 23.562 19.169 42.73 42.73 42.73s42.73-19.169 42.73-42.73v-19.697z" fill="#3762cc"/></g><g><path d="m130.903 57.31v-3.567c0-20.851-17.057-37.754-38.097-37.754-21.04 0-38.097 16.903-38.097 37.754v3.567c-6.615-.134-11.864 5.136-11.864 11.506 0 6.802 5.938 12.183 12.87 11.45 3.932 16.704 19.041 29.148 37.091 29.148 18.051 0 33.16-12.446 37.091-29.148 6.922.732 12.87-4.638 12.87-11.45 0-6.373-5.252-11.64-11.864-11.506z" fill="#f9cfcf"/></g><g><path d="m112.585 76.661c-2.659 0-4.815-2.156-4.815-4.815v-5.136c0-2.659 2.156-4.815 4.815-4.815 2.659 0 4.815 2.156 4.815 4.815v5.136c0 2.659-2.156 4.815-4.815 4.815z" fill="#3762cc"/></g><g><path d="m73.018 76.661c-2.659 0-4.815-2.156-4.815-4.815v-5.136c0-2.659 2.156-4.815 4.815-4.815 2.659 0 4.815 2.156 4.815 4.815v5.136c0 2.659-2.156 4.815-4.815 4.815z" fill="#3762cc"/></g><g><path d="m92.806 111.414c-18.172 0-33.824-11.877-38.625-29.086-3.266-.07-6.422-1.301-8.862-3.496-2.843-2.559-4.474-6.209-4.474-10.016 0-3.644 1.439-7.061 4.053-9.623 2.145-2.102 4.865-3.406 7.811-3.777v-1.674c0-21.92 17.987-39.754 40.097-39.754s40.097 17.833 40.097 39.754v1.674c2.946.371 5.666 1.676 7.811 3.777 2.614 2.562 4.053 5.979 4.053 9.622 0 3.807-1.63 7.457-4.472 10.014-2.44 2.196-5.597 3.427-8.863 3.498-4.802 17.209-20.453 29.087-38.626 29.087zm-37.089-33.148c.918 0 1.731.63 1.945 1.542 3.826 16.254 18.278 27.606 35.144 27.606 16.867 0 31.318-11.352 35.144-27.606.231-.98 1.155-1.636 2.157-1.531 2.74.287 5.48-.592 7.512-2.42 2-1.8 3.148-4.367 3.148-7.041 0-2.56-1.013-4.962-2.853-6.765-1.859-1.822-4.331-2.799-6.971-2.742-.527.021-1.056-.194-1.44-.571-.384-.376-.6-.891-.6-1.429v-3.567c0-19.715-16.193-35.754-36.097-35.754s-36.097 16.04-36.097 35.755v3.567c0 .538-.216 1.052-.6 1.429-.384.376-.898.589-1.44.571-2.64-.053-5.112.92-6.971 2.741-1.839 1.803-2.853 4.206-2.853 6.766 0 2.674 1.148 5.241 3.149 7.042 2.06 1.854 4.726 2.714 7.51 2.419.072-.009.143-.012.213-.012z" fill="#3762cc"/></g><g><path d="m72.389 50.873h51.986c7.269 0 13.161-5.892 13.161-13.161v-11.373c.001-12.89-10.449-23.339-23.338-23.339h-37.919c-12.89 0-23.339 10.449-23.339 23.339v5.084c0 10.742 8.708 19.45 19.449 19.45z" fill="#4671c6"/></g><g><path d="m124.376 52.873h-51.986c-11.828 0-21.45-9.622-21.45-21.449v-5.084c0-13.973 11.367-25.34 25.339-25.34h37.918c13.972 0 25.339 11.367 25.339 25.339v11.372c.001 8.36-6.801 15.162-15.16 15.162zm-48.097-47.873c-11.766 0-21.339 9.573-21.339 21.339v5.084c0 9.622 7.828 17.449 17.45 17.449h51.986c6.154 0 11.161-5.007 11.161-11.161v-11.372c0-11.766-9.573-21.339-21.339-21.339z" fill="#3762cc"/></g><g><path d="m92.789 92.332c-1.573 0-2.95-.186-4.208-.569-2.088-.636-3.923-1.708-5.304-3.101-.778-.784-.772-2.05.012-2.828s2.051-.773 2.828.012c.917.924 2.171 1.647 3.628 2.09.876.267 1.872.396 3.044.396s2.168-.129 3.044-.396c1.457-.443 2.711-1.166 3.628-2.09.777-.785 2.044-.791 2.828-.012.784.778.79 2.044.012 2.828-1.381 1.393-3.215 2.465-5.304 3.101-1.258.383-2.635.569-4.208.569z" fill="#3762cc"/></g><g><path d="m89.231 201.941h-10.588l-9.634 51.059h20.222z" fill="#4671c6"/></g><g><path d="m96.314 201.941h10.588l9.633 51.059h-20.221z" fill="#4671c6"/></g><g><path d="m89.23 255h-20.221c-.595 0-1.16-.265-1.54-.724-.38-.458-.536-1.062-.426-1.647l9.634-51.059c.178-.945 1.004-1.629 1.965-1.629h10.588c1.104 0 2 .896 2 2v51.059c0 1.104-.895 2-2 2zm-17.808-4h15.808v-47.059h-6.93z" fill="#3762cc"/></g><g><path d="m116.535 255h-20.221c-1.104 0-2-.896-2-2v-51.059c0-1.104.896-2 2-2h10.588c.961 0 1.787.684 1.965 1.629l9.633 51.059c.11.585-.045 1.188-.426 1.647-.379.459-.944.724-1.539.724zm-18.221-4h15.809l-8.878-47.059h-6.93v47.059z" fill="#3762cc"/></g><g><path d="m53.489 201.941h78.566v12.636h-78.566z" fill="#4671c6"/></g><g><path d="m132.056 216.577h-78.567c-1.104 0-2-.896-2-2v-12.636c0-1.104.896-2 2-2h78.566c1.104 0 2 .896 2 2v12.636c.001 1.105-.895 2-1.999 2zm-76.567-4h74.566v-8.636h-74.566z" fill="#3762cc"/></g><g><g><path d="m49.847 185.937h11.987c1.042 0 1.886.845 1.886 1.886v5.895c0 2.084-1.689 3.773-3.773 3.773h-12.851c-2.431 0-4.402-1.971-4.402-4.402 0-3.95 3.202-7.152 7.153-7.152z" fill="#f9cfcf"/></g><g><path d="m59.948 199.491h-12.852c-3.53 0-6.402-2.872-6.402-6.401 0-5.047 4.106-9.153 9.153-9.153h11.987c2.143 0 3.887 1.743 3.887 3.886v5.895c0 3.183-2.59 5.773-5.773 5.773zm-10.101-11.554c-2.841 0-5.153 2.312-5.153 5.153 0 1.324 1.078 2.401 2.402 2.401h12.852c.978 0 1.773-.795 1.773-1.773v-5.781zm11.987 0h.01z" fill="#3762cc"/></g><g><path d="m17.182 156.88 3.484-4.459c.953-1.22 2.416-1.933 3.964-1.933h29.645c1.549 0 3.011.713 3.964 1.933l3.484 4.459c1.295 1.657 1.998 3.7 1.998 5.804v25.375c0 1.389-1.126 2.515-2.515 2.515h-7.104c-1.389 0-2.515-1.126-2.515-2.515 0 1.389-1.126 2.515-2.515 2.515h-7.104c-1.389 0-2.515-1.126-2.515-2.515 0 1.389-1.126 2.515-2.515 2.515h-7.104c-1.389 0-2.515-1.126-2.515-2.515 0 1.389-1.126 2.515-2.515 2.515h-7.104c-1.389 0-2.515-1.126-2.515-2.515 0-29.049 0-9.266 0-25.375-.002-2.104.702-4.147 1.997-5.804z" fill="#f9cfcf"/></g><g><path d="m65.721 188.059c0 2.49-2.025 4.515-4.515 4.515h-7.104c-.931 0-1.796-.283-2.515-.767-.719.484-1.585.767-2.516.767h-7.104c-.931 0-1.796-.283-2.515-.767-.719.484-1.585.767-2.516.767h-7.104c-.931 0-1.796-.283-2.516-.767-.719.484-1.584.767-2.515.767h-7.104c-2.49 0-4.516-2.025-4.516-4.515v-25.375c0-2.537.86-5.035 2.422-7.035l3.484-4.459c1.341-1.717 3.361-2.702 5.54-2.702h29.645c2.179 0 4.199.985 5.54 2.703l3.484 4.458c1.562 2 2.422 4.499 2.422 7.035.003 9.192.003 14.725.003 25.375zm-12.135 0c0 .284.231.515.515.515h7.104c.284 0 .515-.231.515-.515v-25.375c0-1.649-.559-3.272-1.575-4.573l-3.484-4.458c-.578-.741-1.448-1.165-2.388-1.165h-29.644c-.939 0-1.81.424-2.388 1.165l-3.484 4.459c-1.016 1.3-1.575 2.924-1.575 4.573v25.375c0 .284.231.515.516.515h7.104c.284 0 .515-.231.515-.515 0-1.104.896-2 2-2s2 .896 2 2c0 .284.231.515.516.515h7.104c.284 0 .516-.231.516-.515 0-1.104.896-2 2-2s2 .896 2 2c0 .284.231.515.515.515h7.104c.284 0 .516-.231.516-.515 0-1.104.896-2 2-2s1.998.895 1.998 1.999z" fill="#3762cc"/></g><g><path d="m51.586 190.059c-1.104 0-2-.896-2-2v-19.179c0-1.104.896-2 2-2s2 .896 2 2v19.179c0 1.105-.895 2-2 2z" fill="#3762cc"/></g><g><path d="m39.452 190.059c-1.104 0-2-.896-2-2v-19.179c0-1.104.896-2 2-2s2 .896 2 2v19.179c0 1.105-.895 2-2 2z" fill="#3762cc"/></g><g><path d="m27.317 190.059c-1.104 0-2-.896-2-2v-19.179c0-1.104.896-2 2-2s2 .896 2 2v19.179c0 1.105-.895 2-2 2z" fill="#3762cc"/></g></g><g><g><path d="m152.85 173.916h9.59c.833 0 1.509-.676 1.509-1.509v-4.716c0-1.667-1.351-3.018-3.018-3.018h-10.282c-1.945 0-3.521 1.577-3.521 3.521-.001 3.16 2.561 5.722 5.722 5.722z" fill="#f9cfcf"/></g><g><path d="m162.439 175.916h-9.59c-4.258 0-7.722-3.464-7.722-7.722 0-3.044 2.477-5.521 5.521-5.521h10.282c2.767 0 5.018 2.251 5.018 5.019v4.716c.001 1.934-1.573 3.508-3.509 3.508zm-11.79-9.244c-.839 0-1.521.683-1.521 1.521 0 2.052 1.67 3.722 3.722 3.722h9.099v-4.225c0-.562-.457-1.019-1.018-1.019h-10.282z" fill="#3762cc"/></g><g><path d="m126.718 197.162 2.787 3.567c.763.976 1.932 1.547 3.171 1.547h23.716c1.239 0 2.409-.571 3.171-1.547l2.787-3.567c1.036-1.326 1.599-2.96 1.599-4.643 0-10.958 0 12.603 0-20.3 0-1.111-.901-2.012-2.012-2.012h-5.683c-1.111 0-2.012.901-2.012 2.012 0-1.111-.901-2.012-2.012-2.012h-5.683c-1.111 0-2.012.901-2.012 2.012 0-1.111-.901-2.012-2.012-2.012h-5.683c-1.111 0-2.012.901-2.012 2.012 0-1.111-.901-2.012-2.012-2.012h-5.683c-1.111 0-2.012.901-2.012 2.012v20.3c-.002 1.682.561 3.317 1.597 4.643z" fill="#f9cfcf"/></g><g><path d="m156.392 204.276h-23.716c-1.867 0-3.597-.844-4.747-2.315l-2.787-3.567c-1.304-1.669-2.022-3.755-2.022-5.875v-20.3c0-2.212 1.8-4.012 4.012-4.012h5.683c.733 0 1.42.197 2.012.542.592-.345 1.279-.542 2.012-.542h5.683c.733 0 1.42.197 2.012.542.592-.345 1.279-.542 2.012-.542h5.683c.733 0 1.42.197 2.012.542.592-.345 1.279-.542 2.012-.542h5.683c2.212 0 4.012 1.8 4.012 4.012v20.3c0 2.119-.718 4.206-2.023 5.875l-2.787 3.567c-1.149 1.471-2.879 2.315-4.746 2.315zm5.557-32.058-5.695-.012c0 .555-.228 1.058-.593 1.422-.362.365-.864.59-1.419.59-1.104 0-2-.896-2-2l-5.695-.012c0 .555-.228 1.058-.594 1.422-.362.365-.864.59-1.418.59-1.104 0-2-.896-2-2l-5.695-.012c0 .555-.228 1.058-.594 1.422-.362.364-.864.59-1.418.59-1.104 0-2-.896-2-2l-5.695-.012-.012 20.313c0 1.231.417 2.442 1.174 3.412l2.787 3.567c.386.495.968.778 1.595.778h23.716c.627 0 1.209-.284 1.595-.778l2.787-3.567c.758-.969 1.175-2.181 1.175-3.412-.001-7.354-.001-11.781-.001-20.301z" fill="#3762cc"/></g><g><path d="m154.241 189.562c-1.104 0-2-.896-2-2v-15.343c0-1.104.896-2 2-2s2 .896 2 2v15.343c0 1.104-.895 2-2 2z" fill="#3762cc"/></g><g><path d="m144.534 189.562c-1.104 0-2-.896-2-2v-15.343c0-1.104.896-2 2-2s2 .896 2 2v15.343c0 1.104-.896 2-2 2z" fill="#3762cc"/></g><g><path d="m134.826 189.562c-1.104 0-2-.896-2-2v-15.343c0-1.104.896-2 2-2s2 .896 2 2v15.343c0 1.104-.895 2-2 2z" fill="#3762cc"/></g></g></g><g><circle cx="190.817" cy="128" fill="#6bdddd" r="50"/></g><g><circle cx="190.817" cy="128" fill="#4671c6" r="38"/></g><g><path d="m190.817 180c-28.673 0-52-23.327-52-52s23.327-52 52-52 52 23.327 52 52-23.327 52-52 52zm0-100c-26.467 0-48 21.533-48 48s21.533 48 48 48 48-21.533 48-48-21.533-48-48-48z" fill="#3762cc"/></g><g><g><path d="m170.236 147.246v-39.657c0-3.784 3.085-5.702 6.688-5.702h13.012c7.683 0 16.163 1 19.207 7.657 1.584 3.465 1.726 9.313-1.499 13.451-1.718 2.206-4.136 3.588-7.255 4.148v.146c7.243 1.049 11.952 5.661 11.952 13.012 0 7.272-6.185 14.438-18.823 14.438h-16.594c-5.072 0-6.688-2.613-6.688-7.493zm18.092-22.99c6.485 0 10.782-1.379 10.782-7.675 0-5.829-4.033-6.798-9.905-6.798h-7.603v14.474h6.726zm.987 22.552c7.549 0 11.294-1.251 11.294-7.822 0-6.892-5.447-7.749-12.792-7.749h-6.214v15.571z" fill="#e0ebfc"/></g></g></g></svg>